<svg xmlns="http://www.w3.org/2000/svg" viewBox="0 0 1280 720" width="1280" height="720" role="img"><title>The Commit Cafe</title><desc>GitHub activity for michael-denyer as an animated cat cafe: repos are cats, poses follow commit recency, an open PR waits at the door as a dog, and the contribution streak fills the food bowl.</desc><rect width="1280" height="580" fill="#e8d4b4"/><rect y="490" width="1280" height="90" fill="#dcc49e"/><rect y="490" width="1280" height="5" fill="#c9a87e"/><rect y="580" width="1280" height="140" fill="#a06b42"/><path d="M0 604 H1280" stroke="#8a5732" stroke-width="2"/><path d="M0 632 H1280" stroke="#8a5732" stroke-width="2"/><path d="M0 660 H1280" stroke="#8a5732" stroke-width="2"/><path d="M0 688 H1280" stroke="#8a5732" stroke-width="2"/><path d="M0 716 H1280" stroke="#8a5732" stroke-width="2"/><path d="M0 590 v24" stroke="#8a5732" stroke-width="2"/><path d="M233 617 v24" stroke="#8a5732" stroke-width="2"/><path d="M346 644 v24" stroke="#8a5732" stroke-width="2"/><path d="M579 671 v24" stroke="#8a5732" stroke-width="2"/><path d="M692 698 v24" stroke="#8a5732" stroke-width="2"/><path d="M925 590 v24" stroke="#8a5732" stroke-width="2"/><path d="M1038 617 v24" stroke="#8a5732" stroke-width="2"/><path d="M1271 644 v24" stroke="#8a5732" stroke-width="2"/><path d="M104 671 v24" stroke="#8a5732" stroke-width="2"/><path d="M337 698 v24" stroke="#8a5732" stroke-width="2"/><path d="M450 590 v24" stroke="#8a5732" stroke-width="2"/><path d="M683 617 v24" stroke="#8a5732" stroke-width="2"/><path d="M796 644 v24" stroke="#8a5732" stroke-width="2"/><path d="M1029 671 v24" stroke="#8a5732" stroke-width="2"/><g transform="translate(60 120)"><g><rect x="14" y="14" width="272" height="126" fill="#9cc4e4"/><rect x="14" y="140" width="272" height="126" fill="#c4ddf0"/><g opacity="0.9"><g><animateTransform attributeName="transform" type="translate" values="-80 0;300 0" dur="34s" repeatCount="indefinite"/><ellipse cx="60" cy="60" rx="34" ry="12" fill="#f5f2ea"/><ellipse cx="84" cy="52" rx="22" ry="10" fill="#f5f2ea"/></g><g><animateTransform attributeName="transform" type="translate" values="320 0;-100 0" dur="52s" repeatCount="indefinite"/><ellipse cx="40" cy="110" rx="28" ry="10" fill="#efe9dd"/></g></g><g opacity="0"><circle cx="30" cy="28" r="1.4" fill="#dfe6ff"><animate attributeName="opacity" values="0.3;1;0.3" dur="2.4s" begin="0.0000s" repeatCount="indefinite"/></circle><circle cx="77" cy="59" r="1.4" fill="#dfe6ff"><animate attributeName="opacity" values="0.3;1;0.3" dur="3.3s" begin="-0.7000s" repeatCount="indefinite"/></circle><circle cx="124" cy="90" r="1.4" fill="#dfe6ff"><animate attributeName="opacity" values="0.3;1;0.3" dur="4.2s" begin="-1.4000s" repeatCount="indefinite"/></circle><circle cx="171" cy="121" r="1.4" fill="#dfe6ff"><animate attributeName="opacity" values="0.3;1;0.3" dur="5.1s" begin="-2.1000s" repeatCount="indefinite"/></circle><circle cx="218" cy="52" r="1.4" fill="#dfe6ff"><animate attributeName="opacity" values="0.3;1;0.3" dur="2.4s" begin="-2.8000s" repeatCount="indefinite"/></circle><circle cx="265" cy="83" r="1.4" fill="#dfe6ff"><animate attributeName="opacity" values="0.3;1;0.3" dur="3.3s" begin="0.0000s" repeatCount="indefinite"/></circle><circle cx="72" cy="114" r="1.4" fill="#dfe6ff"><animate attributeName="opacity" values="0.3;1;0.3" dur="4.2s" begin="-0.7000s" repeatCount="indefinite"/></circle><circle cx="119" cy="45" r="1.4" fill="#dfe6ff"><animate attributeName="opacity" values="0.3;1;0.3" dur="5.1s" begin="-1.4000s" repeatCount="indefinite"/></circle><circle cx="166" cy="76" r="1.4" fill="#dfe6ff"><animate attributeName="opacity" values="0.3;1;0.3" dur="2.4s" begin="-2.1000s" repeatCount="indefinite"/></circle><circle cx="213" cy="107" r="1.4" fill="#dfe6ff"><animate attributeName="opacity" values="0.3;1;0.3" dur="3.3s" begin="-2.8000s" repeatCount="indefinite"/></circle><circle cx="260" cy="38" r="1.4" fill="#dfe6ff"><animate attributeName="opacity" values="0.3;1;0.3" dur="4.2s" begin="0.0000s" repeatCount="indefinite"/></circle><circle cx="67" cy="69" r="1.4" fill="#dfe6ff"><animate attributeName="opacity" values="0.3;1;0.3" dur="5.1s" begin="-0.7000s" repeatCount="indefinite"/></circle><circle cx="114" cy="100" r="1.4" fill="#dfe6ff"><animate attributeName="opacity" values="0.3;1;0.3" dur="2.4s" begin="-1.4000s" repeatCount="indefinite"/></circle><circle cx="161" cy="31" r="1.4" fill="#dfe6ff"><animate attributeName="opacity" values="0.3;1;0.3" dur="3.3s" begin="-2.1000s" repeatCount="indefinite"/></circle><circle cx="208" cy="62" r="1.4" fill="#dfe6ff"><animate attributeName="opacity" values="0.3;1;0.3" dur="4.2s" begin="-2.8000s" repeatCount="indefinite"/></circle><circle cx="255" cy="93" r="1.4" fill="#dfe6ff"><animate attributeName="opacity" values="0.3;1;0.3" dur="5.1s" begin="0.0000s" repeatCount="indefinite"/></circle></g><circle cx="240" cy="62" r="24" fill="#f0e6cd" opacity="0"/><g><rect x="30" y="186" width="50" height="80" fill="#7c95ad"/><rect x="100" y="166" width="40" height="100" fill="#7c95ad"/><rect x="160" y="196" width="60" height="70" fill="#7c95ad"/><rect x="236" y="176" width="40" height="90" fill="#7c95ad"/><rect x="38" y="196" width="8" height="9" fill="#5f7991"><animate attributeName="opacity" values="1;1;0.2;1" keyTimes="0;0.7;0.75;0.8" calcMode="discrete" dur="5s" repeatCount="indefinite"/></rect><rect x="91" y="219" width="8" height="9" fill="#5f7991"><animate attributeName="opacity" values="1;1;0.2;1" keyTimes="0;0.7;0.75;0.8" calcMode="discrete" dur="6s" repeatCount="indefinite"/></rect><rect x="144" y="242" width="8" height="9" fill="#5f7991"><animate attributeName="opacity" values="1;1;0.2;1" keyTimes="0;0.7;0.75;0.8" calcMode="discrete" dur="7s" repeatCount="indefinite"/></rect><rect x="197" y="209" width="8" height="9" fill="#5f7991"><animate attributeName="opacity" values="1;1;0.2;1" keyTimes="0;0.7;0.75;0.8" calcMode="discrete" dur="8s" repeatCount="indefinite"/></rect><rect x="250" y="232" width="8" height="9" fill="#5f7991"><animate attributeName="opacity" values="1;1;0.2;1" keyTimes="0;0.7;0.75;0.8" calcMode="discrete" dur="9s" repeatCount="indefinite"/></rect><rect x="83" y="199" width="8" height="9" fill="#5f7991"><animate attributeName="opacity" values="1;1;0.2;1" keyTimes="0;0.7;0.75;0.8" calcMode="discrete" dur="10s" repeatCount="indefinite"/></rect></g><rect x="0" y="0" width="300" height="280" fill="none" stroke="#6e4a2e" stroke-width="14"/><rect x="144" y="14" width="10" height="252" fill="#6e4a2e"/><rect x="14" y="132" width="272" height="10" fill="#6e4a2e"/></g></g><g transform="translate(74 134)"><g><path d="M0 0 L90 0 L260 460 L100 460 Z" fill="#fff3d6" opacity="0.16"/><g opacity="0.16"><circle cx="0" cy="0" r="1.6" fill="#fff8e8"><animateTransform attributeName="transform" type="translate" values="0 0;8 18;0 0" dur="9s" repeatCount="indefinite"/><animate attributeName="opacity" values="0.2;0.8;0.2" dur="7s" repeatCount="indefinite"/></circle><circle cx="37" cy="53" r="1.6" fill="#fff8e8"><animateTransform attributeName="transform" type="translate" values="0 0;2 26;0 0" dur="10s" repeatCount="indefinite"/><animate attributeName="opacity" values="0.2;0.8;0.2" dur="8s" repeatCount="indefinite"/></circle><circle cx="74" cy="106" r="1.6" fill="#fff8e8"><animateTransform attributeName="transform" type="translate" values="0 0;-4 34;0 0" dur="11s" repeatCount="indefinite"/><animate attributeName="opacity" values="0.2;0.8;0.2" dur="9s" repeatCount="indefinite"/></circle><circle cx="111" cy="159" r="1.6" fill="#fff8e8"><animateTransform attributeName="transform" type="translate" values="0 0;8 42;0 0" dur="12s" repeatCount="indefinite"/><animate attributeName="opacity" values="0.2;0.8;0.2" dur="10s" repeatCount="indefinite"/></circle><circle cx="148" cy="212" r="1.6" fill="#fff8e8"><animateTransform attributeName="transform" type="translate" values="0 0;2 18;0 0" dur="13s" repeatCount="indefinite"/><animate attributeName="opacity" values="0.2;0.8;0.2" dur="11s" repeatCount="indefinite"/></circle><circle cx="5" cy="25" r="1.6" fill="#fff8e8"><animateTransform attributeName="transform" type="translate" values="0 0;-4 26;0 0" dur="14s" repeatCount="indefinite"/><animate attributeName="opacity" values="0.2;0.8;0.2" dur="12s" repeatCount="indefinite"/></circle><circle cx="42" cy="78" r="1.6" fill="#fff8e8"><animateTransform attributeName="transform" type="translate" values="0 0;8 34;0 0" dur="15s" repeatCount="indefinite"/><animate attributeName="opacity" values="0.2;0.8;0.2" dur="13s" repeatCount="indefinite"/></circle><circle cx="79" cy="131" r="1.6" fill="#fff8e8"><animateTransform attributeName="transform" type="translate" values="0 0;2 42;0 0" dur="16s" repeatCount="indefinite"/><animate attributeName="opacity" values="0.2;0.8;0.2" dur="14s" repeatCount="indefinite"/></circle></g></g></g><g transform="translate(90 150)"><g><g opacity="0"><circle cx="30" cy="20" r="2.4" fill="#ffe9a0"><animate attributeName="opacity" values="0;1;0;0" keyTimes="0;0.15;0.4;1" dur="3.4s" repeatCount="indefinite"/><animateTransform attributeName="transform" type="translate" values="0 0;14 -12;0 0" dur="8s" repeatCount="indefinite"/></circle><circle cx="90" cy="50" r="2.4" fill="#ffe9a0"><animate attributeName="opacity" values="0;1;0;0" keyTimes="0;0.15;0.4;1" dur="4.7s" repeatCount="indefinite"/><animateTransform attributeName="transform" type="translate" values="0 0;4 -4;0 0" dur="10s" repeatCount="indefinite"/></circle></g></g></g><g transform="translate(700 18)"><g><rect x="-160" y="0" width="320" height="106" fill="#33393a"/><rect x="-160" y="0" width="320" height="106" fill="none" stroke="#6e4a2e" stroke-width="6"/><text x="0" y="38" text-anchor="middle" font-family="Georgia, serif" font-size="26" font-weight="500" fill="#f5ead2">THE COMMIT CAFE</text><text x="0" y="62" text-anchor="middle" font-family="Georgia, serif" font-size="14" fill="#f5ead2">33 commits today · 8 stars</text><text x="0" y="80" text-anchor="middle" font-family="Georgia, serif" font-size="14" fill="#f5ead2">est. 2022 · rendered 2026-06-14 19:41 UTC</text></g></g><rect x="880" y="196" width="330" height="13" fill="#8a5f3c"/><rect x="890" y="209" width="12" height="26" fill="#6e4a2e"/><rect x="1188" y="209" width="12" height="26" fill="#6e4a2e"/><rect x="420" y="300" width="240" height="13" fill="#8a5f3c"/><rect x="430" y="313" width="12" height="26" fill="#6e4a2e"/><rect x="638" y="313" width="12" height="26" fill="#6e4a2e"/><rect x="900" y="470" width="340" height="18" fill="#8a5f3c"/><rect x="912" y="488" width="316" height="152" fill="#6e4a2e"/><rect x="1158" y="442" width="30" height="26" fill="#f5f0e4"/><path d="M1190 445 a8 8 0 0 1 0 16" stroke="#f5f0e4" stroke-width="3" fill="none"/><g transform="translate(1173 436)"><g><circle cx="-3" cy="0" r="4" fill="#f5f2ea" opacity="0"><animate attributeName="opacity" values="0;0.5;0" dur="3.2s" begin="0.0000s" repeatCount="indefinite"/><animateTransform attributeName="transform" type="translate" values="0 0;4 -34" dur="3.2s" begin="0.0000s" repeatCount="indefinite"/></circle><circle cx="0" cy="0" r="5" fill="#f5f2ea" opacity="0"><animate attributeName="opacity" values="0;0.5;0" dur="3.2s" begin="1.0500s" repeatCount="indefinite"/><animateTransform attributeName="transform" type="translate" values="0 0;0 -34" dur="3.2s" begin="1.0500s" repeatCount="indefinite"/></circle><circle cx="3" cy="0" r="6" fill="#f5f2ea" opacity="0"><animate attributeName="opacity" values="0;0.5;0" dur="3.2s" begin="2.1000s" repeatCount="indefinite"/><animateTransform attributeName="transform" type="translate" values="0 0;-4 -34" dur="3.2s" begin="2.1000s" repeatCount="indefinite"/></circle></g></g><g transform="translate(1020 330)"><g><g class="spine"><rect x="6.0" y="-52" width="129.3" height="52" fill="#c75450" rx="2"/><text x="70.6" y="-22" text-anchor="middle" font-family="Georgia, serif" font-size="11" fill="#f5ead2" transform="rotate(-90 70.6 -26)">Python</text></g><g class="spine"><rect x="139.3" y="-46" width="32.3" height="46" fill="#4e7a4a" rx="2"/><text x="155.5" y="-19" text-anchor="middle" font-family="Georgia, serif" font-size="11" fill="#f5ead2" transform="rotate(-90 155.5 -23)">C</text></g><g class="spine"><rect x="175.6" y="-40" width="18.0" height="40" fill="#4a7a9c" rx="2"/><text x="184.6" y="-16" text-anchor="middle" font-family="Georgia, serif" font-size="11" fill="#f5ead2" transform="rotate(-90 184.6 -20)">C++</text></g><g class="spine"><rect x="197.6" y="-52" width="18.0" height="52" fill="#c9a24a" rx="2"/><text x="206.6" y="-22" text-anchor="middle" font-family="Georgia, serif" font-size="11" fill="#f5ead2" transform="rotate(-90 206.6 -26)">JavaScript</text></g><rect x="0" y="0" width="221.6" height="12" fill="#8a5f3c"/><rect x="6" y="12" width="10" height="22" fill="#6e4a2e"/><rect x="205.6" y="12" width="10" height="22" fill="#6e4a2e"/></g></g><g transform="translate(1140 162)"><g><g><animateTransform attributeName="transform" type="rotate" values="0 0 0;2.5 0 0;0 0 0;-2 0 0;0 0 0" dur="7s" begin="-2.1000s" repeatCount="indefinite"/><ellipse cx="-22" cy="-26" rx="7" ry="17" fill="#4e7a4a" transform="rotate(-40 -22 -26)"/><ellipse cx="-12" cy="-38" rx="7" ry="17" fill="#4e7a4a" transform="rotate(-18 -12 -38)"/><ellipse cx="0" cy="-44" rx="7" ry="17" fill="#4e7a4a" transform="rotate(0 0 -44)"/><ellipse cx="12" cy="-38" rx="7" ry="17" fill="#4e7a4a" transform="rotate(18 12 -38)"/><ellipse cx="22" cy="-26" rx="7" ry="17" fill="#4e7a4a" transform="rotate(40 22 -26)"/></g><path d="M-24 0 L24 0 L16 -28 L-16 -28 Z" fill="#b3593e" transform="scale(1 -1)"/></g></g><g transform="translate(480 0)"><g><path d="M0 0 V56" stroke="#5a4632" stroke-width="3"/><path d="M-26 92 L26 92 L14 58 L-14 58 Z" fill="#c75450"/><circle cx="0" cy="94" r="7" fill="#ffd9a0"/><circle cx="0" cy="120" r="56" fill="#ffd9a0" opacity="0"/><path d="M-26 92 L26 92 L78 360 L-78 360 Z" fill="#ffd9a0" opacity="0"/></g></g><g transform="translate(1100 0)"><g><path d="M0 0 V56" stroke="#5a4632" stroke-width="3"/><path d="M-26 92 L26 92 L14 58 L-14 58 Z" fill="#c75450"/><circle cx="0" cy="94" r="7" fill="#ffd9a0"/><circle cx="0" cy="120" r="56" fill="#ffd9a0" opacity="0"/><path d="M-26 92 L26 92 L78 360 L-78 360 Z" fill="#ffd9a0" opacity="0"/></g></g><g transform="translate(460 160)"><g><circle cx="0" cy="0" r="28" fill="#f5ead2" stroke="#6e4a2e" stroke-width="5"/><path d="M0 0 L-10.8 8.9" stroke="#2c2620" stroke-width="3" stroke-linecap="round"/><path d="M0 0 L-18.3 8.1" stroke="#2c2620" stroke-width="2" stroke-linecap="round"/><circle cx="0" cy="0" r="2.5" fill="#2c2620"/></g></g><g transform="translate(545 185)"><g><rect x="0" y="0" width="64" height="74" fill="#8a5f3c"/><rect x="5" y="5" width="54" height="64" fill="#f5ead2"/><g fill="#2c2620"><circle cx="32" cy="30" r="13"/><ellipse cx="22" cy="21" rx="5" ry="6"/><ellipse cx="42" cy="21" rx="5" ry="6"/><path d="M16 44 Q14 54 20 56 M24 46 Q23 56 28 58 M32 46 V58 M40 46 Q41 56 36 58 M48 44 Q50 54 44 56" stroke="#2c2620" stroke-width="4" fill="none" stroke-linecap="round"/></g><circle cx="27" cy="29" r="3" fill="#f5ead2"/><circle cx="37" cy="29" r="3" fill="#f5ead2"/></g></g><g transform="translate(765 580)"><g><rect x="-65" y="-310" width="130" height="310" fill="#8a5f3c"/><rect x="-57" y="-302" width="114" height="294" fill="#8a5f3c"/><rect x="-47" y="-288" width="94" height="130" fill="#c4ddf0"/><circle cx="41" cy="-120" r="6" fill="#c9a24a"/><g><animateTransform attributeName="transform" type="translate" values="0 0;0 -14;0 0" keyTimes="0;0.5;1" calcMode="spline" keySplines="0.3 0 0.4 1;0.6 0 0.7 1" dur="0.9s" repeatCount="indefinite"/><path d="M18 -178 L34 -192" stroke="#9c6f44" stroke-width="6" stroke-linecap="round"><animateTransform attributeName="transform" type="rotate" values="-20 18 -178;20 18 -178;-20 18 -178" dur="0.45s" repeatCount="indefinite"/></path><circle cx="0" cy="-198" r="26" fill="#b98a5e"/><ellipse cx="-23" cy="-198" rx="9" ry="20" fill="#b98a5e" transform="rotate(20 -23 -198)"/><ellipse cx="23" cy="-198" rx="9" ry="20" fill="#b98a5e" transform="rotate(-20 23 -198)"/><ellipse cx="0" cy="-188" rx="13" ry="10" fill="#e8d9b8"/><circle cx="0" cy="-192" r="4" fill="#2c2620"/><circle cx="-9" cy="-204" r="2.6" fill="#2c2620"/><circle cx="9" cy="-204" r="2.6" fill="#2c2620"/><rect x="-3" y="-184" width="7" height="10" rx="3" fill="#d98a8a"/></g><circle cx="-23" cy="-168" r="7" fill="#9c6f44"/><circle cx="23" cy="-168" r="7" fill="#9c6f44"/><path d="M-25 -332 V-344 M25 -332 V-344" stroke="#6e4a2e" stroke-width="2"/><g transform="translate(0 -358)"><g><rect x="-101.0" y="0" width="202" height="26" fill="#8a5f3c" rx="3"/><rect x="-101.0" y="22" width="202" height="4" fill="#6e4a2e" rx="2"/><text x="0" y="18" text-anchor="middle" font-family="Georgia, serif" font-size="14" font-weight="500" fill="#f5ead2">PR #2 · let me in?</text></g></g><text x="0" y="-322" text-anchor="middle" font-family="Georgia, serif" font-size="13" fill="#5a3f28">+5 waiting</text></g></g><g transform="translate(950 196) scale(0.965)"><g><path d="M24 -6 Q52 -10 46 -44" stroke="#e8954f" stroke-width="9" fill="none" stroke-linecap="round"><animateTransform attributeName="transform" type="rotate" values="0 24 -6;12 24 -6;0 24 -6;-7.199999999999999 24 -6;0 24 -6" keyTimes="0;0.3;0.55;0.8;1" calcMode="spline" keySplines="0.4 0 0.6 1;0.4 0 0.6 1;0.4 0 0.6 1;0.4 0 0.6 1" dur="6s" begin="-1.0800s" repeatCount="indefinite"/></path><ellipse cx="0" cy="-28" rx="27" ry="30" fill="#e8954f"/><ellipse cx="0" cy="-16" rx="14" ry="12" fill="#f5d9b8"/><ellipse cx="-12" cy="-2" rx="9" ry="6" fill="#e8954f"/><ellipse cx="10" cy="-2" rx="9" ry="6" fill="#e8954f"/><circle cx="0" cy="-62" r="19" fill="#e8954f"/><g><animateTransform attributeName="transform" type="rotate" values="0 -18 -74;0 -18 -74;-9 -18 -74;0 -18 -74;0 -18 -74" keyTimes="0;0.55;0.6;0.65;1" dur="9s" begin="-1.6200s" repeatCount="indefinite"/><path d="M-18 -74 L-13.45 -90.9 L-5 -74 Z" fill="#e8954f"/><path d="M-14.75 -75.3 L-10.135 -83.75 L-8.25 -75.3 Z" fill="#d98a8a"/></g><g><path d="M5 -74 L13.450000000000001 -90.9 L18 -74 Z" fill="#e8954f"/><path d="M8.25 -75.3 L14.035 -83.75 L14.75 -75.3 Z" fill="#d98a8a"/></g><g opacity="1"><animate attributeName="opacity" values="1;1;0;0;1" keyTimes="0;0.92;0.93;0.97;0.98" dur="5.2s" begin="-0.9360s" repeatCount="indefinite"/><circle cx="-8" cy="-64" r="4.0" fill="#4a7a9c" opacity="0"/><circle cx="8" cy="-64" r="4.0" fill="#4a7a9c" opacity="0"/><circle cx="-8" cy="-64" r="2.5" fill="#2c2620"/><circle cx="8" cy="-64" r="2.5" fill="#2c2620"/></g><g opacity="0"><animate attributeName="opacity" values="0;0;1;1;0" keyTimes="0;0.92;0.93;0.97;0.98" dur="5.2s" begin="-0.9360s" repeatCount="indefinite"/><path d="M-10.5 -64 Q-8 -60.5 -5.5 -64" stroke="#2c2620" stroke-width="2" fill="none" stroke-linecap="round"/><path d="M5.5 -64 Q8 -60.5 10.5 -64" stroke="#2c2620" stroke-width="2" fill="none" stroke-linecap="round"/></g><circle cx="0" cy="-57" r="2" fill="#d98a8a"/><path d="M-12 -60 L-28 -65" stroke="#2c2620" stroke-opacity="0.4" stroke-width="1"/><path d="M-12 -58 L-28 -60" stroke="#2c2620" stroke-opacity="0.4" stroke-width="1"/><path d="M-12 -56 L-28 -55" stroke="#2c2620" stroke-opacity="0.4" stroke-width="1"/><path d="M12 -60 L28 -65" stroke="#2c2620" stroke-opacity="0.4" stroke-width="1"/><path d="M12 -58 L28 -60" stroke="#2c2620" stroke-opacity="0.4" stroke-width="1"/><path d="M12 -56 L28 -55" stroke="#2c2620" stroke-opacity="0.4" stroke-width="1"/></g></g><g transform="translate(950 210)"><g><rect x="-36.0" y="0" width="72" height="26" fill="#8a5f3c" rx="3"/><rect x="-36.0" y="22" width="72" height="4" fill="#6e4a2e" rx="2"/><text x="0" y="18" text-anchor="middle" font-family="Georgia, serif" font-size="14" font-weight="500" fill="#f5ead2">jamma</text></g></g><g transform="translate(1080 196) scale(0.950)"><g><path d="M24 -6 Q52 -10 46 -44" stroke="#f0ece2" stroke-width="9" fill="none" stroke-linecap="round"><animateTransform attributeName="transform" type="rotate" values="0 24 -6;12 24 -6;0 24 -6;-7.199999999999999 24 -6;0 24 -6" keyTimes="0;0.3;0.55;0.8;1" calcMode="spline" keySplines="0.4 0 0.6 1;0.4 0 0.6 1;0.4 0 0.6 1;0.4 0 0.6 1" dur="6s" begin="-0.9000s" repeatCount="indefinite"/></path><ellipse cx="0" cy="-28" rx="27" ry="30" fill="#f0ece2"/><ellipse cx="0" cy="-16" rx="14" ry="12" fill="#f0ece2"/><ellipse cx="-10.8" cy="-37.0" rx="9.45" ry="12.0" fill="#e8954f"/><ellipse cx="12.15" cy="-25.0" rx="8.1" ry="10.5" fill="#5a4a42"/><ellipse cx="-12" cy="-2" rx="9" ry="6" fill="#f0ece2"/><ellipse cx="10" cy="-2" rx="9" ry="6" fill="#f0ece2"/><circle cx="0" cy="-62" r="19" fill="#f0ece2"/><g><animateTransform attributeName="transform" type="rotate" values="0 -18 -74;0 -18 -74;-9 -18 -74;0 -18 -74;0 -18 -74" keyTimes="0;0.55;0.6;0.65;1" dur="9s" begin="-1.3500s" repeatCount="indefinite"/><path d="M-18 -74 L-13.45 -90.9 L-5 -74 Z" fill="#f0ece2"/><path d="M-14.75 -75.3 L-10.135 -83.75 L-8.25 -75.3 Z" fill="#d98a8a"/></g><g><path d="M5 -74 L13.450000000000001 -90.9 L18 -74 Z" fill="#f0ece2"/><path d="M8.25 -75.3 L14.035 -83.75 L14.75 -75.3 Z" fill="#d98a8a"/></g><g opacity="1"><animate attributeName="opacity" values="1;1;0;0;1" keyTimes="0;0.92;0.93;0.97;0.98" dur="5.2s" begin="-0.7800s" repeatCount="indefinite"/><circle cx="-8" cy="-64" r="4.0" fill="#c9a24a" opacity="0"/><circle cx="8" cy="-64" r="4.0" fill="#c9a24a" opacity="0"/><circle cx="-8" cy="-64" r="2.5" fill="#2c2620"/><circle cx="8" cy="-64" r="2.5" fill="#2c2620"/></g><g opacity="0"><animate attributeName="opacity" values="0;0;1;1;0" keyTimes="0;0.92;0.93;0.97;0.98" dur="5.2s" begin="-0.7800s" repeatCount="indefinite"/><path d="M-10.5 -64 Q-8 -60.5 -5.5 -64" stroke="#2c2620" stroke-width="2" fill="none" stroke-linecap="round"/><path d="M5.5 -64 Q8 -60.5 10.5 -64" stroke="#2c2620" stroke-width="2" fill="none" stroke-linecap="round"/></g><circle cx="0" cy="-57" r="2" fill="#d98a8a"/><path d="M-12 -60 L-28 -65" stroke="#2c2620" stroke-opacity="0.4" stroke-width="1"/><path d="M-12 -58 L-28 -60" stroke="#2c2620" stroke-opacity="0.4" stroke-width="1"/><path d="M-12 -56 L-28 -55" stroke="#2c2620" stroke-opacity="0.4" stroke-width="1"/><path d="M12 -60 L28 -65" stroke="#2c2620" stroke-opacity="0.4" stroke-width="1"/><path d="M12 -58 L28 -60" stroke="#2c2620" stroke-opacity="0.4" stroke-width="1"/><path d="M12 -56 L28 -55" stroke="#2c2620" stroke-opacity="0.4" stroke-width="1"/></g></g><g transform="translate(1080 240)"><g><rect x="-81.0" y="0" width="162" height="26" fill="#8a5f3c" rx="3"/><rect x="-81.0" y="22" width="162" height="4" fill="#6e4a2e" rx="2"/><text x="0" y="18" text-anchor="middle" font-family="Georgia, serif" font-size="14" font-weight="500" fill="#f5ead2">michael-denyer</text></g></g><g transform="translate(1000 470) scale(0.950)"><g transform="translate(0 -15)"><g><animateTransform attributeName="transform" type="scale" values="1 1;1 1.03;1 1" keyTimes="0;0.5;1" calcMode="spline" keySplines="0.4 0 0.6 1;0.4 0 0.6 1" dur="4.0s" begin="-0.5200s" repeatCount="indefinite"/><g transform="translate(0 15)"><g><ellipse cx="0" cy="-15" rx="32" ry="16" fill="#3a3a41"/><ellipse cx="-11.2" cy="-1.4000000000000004" rx="7" ry="4" fill="#f0ece2"/><ellipse cx="11.2" cy="-1.4000000000000004" rx="7" ry="4" fill="#f0ece2"/><path d="M28 -10 Q44 -14 42 -30" stroke="#26262c" stroke-width="6" fill="none" stroke-linecap="round"><animateTransform attributeName="transform" type="rotate" values="0 28 -10;10 28 -10;0 28 -10;-6.0 28 -10;0 28 -10" keyTimes="0;0.3;0.55;0.8;1" calcMode="spline" keySplines="0.4 0 0.6 1;0.4 0 0.6 1;0.4 0 0.6 1;0.4 0 0.6 1" dur="7s" begin="-0.9100s" repeatCount="indefinite"/></path><circle cx="-24" cy="-26" r="16" fill="#3a3a41"/><g><animateTransform attributeName="transform" type="rotate" values="0 -37 -37;0 -37 -37;-9 -37 -37;0 -37 -37;0 -37 -37" keyTimes="0;0.55;0.6;0.65;1" dur="9s" begin="-1.1700s" repeatCount="indefinite"/><path d="M-37 -37 L-32.6 -51.3 L-26 -37 Z" fill="#3a3a41"/><path d="M-34.25 -38.1 L-30.18 -45.25 L-28.75 -38.1 Z" fill="#d98a8a"/></g><g><path d="M-20 -38 L-13.4 -52.3 L-9 -38 Z" fill="#3a3a41"/><path d="M-17.25 -39.1 L-12.52 -46.25 L-11.75 -39.1 Z" fill="#d98a8a"/></g><g opacity="1"><animate attributeName="opacity" values="1;1;0;0;1" keyTimes="0;0.92;0.93;0.97;0.98" dur="6.4s" begin="-0.8320s" repeatCount="indefinite"/><circle cx="-31" cy="-27" r="3.7" fill="#4a7a9c" opacity="0"/><circle cx="-17" cy="-27" r="3.7" fill="#4a7a9c" opacity="0"/><circle cx="-31" cy="-27" r="2.2" fill="#2c2620"/><circle cx="-17" cy="-27" r="2.2" fill="#2c2620"/></g><g opacity="0"><animate attributeName="opacity" values="0;0;1;1;0" keyTimes="0;0.92;0.93;0.97;0.98" dur="6.4s" begin="-0.8320s" repeatCount="indefinite"/><path d="M-33.2 -27 Q-31 -23.92 -28.8 -27" stroke="#2c2620" stroke-width="2" fill="none" stroke-linecap="round"/><path d="M-19.2 -27 Q-17 -23.92 -14.8 -27" stroke="#2c2620" stroke-width="2" fill="none" stroke-linecap="round"/></g><circle cx="-24" cy="-21" r="1.8" fill="#d98a8a"/></g></g></g></g></g><g transform="translate(1000 484)"><g><rect x="-76.0" y="0" width="152" height="26" fill="#8a5f3c" rx="3"/><rect x="-76.0" y="22" width="152" height="4" fill="#6e4a2e" rx="2"/><text x="0" y="18" text-anchor="middle" font-family="Georgia, serif" font-size="14" font-weight="500" fill="#f5ead2">pstack-claude</text></g></g><g transform="translate(210 400) scale(0.950)"><g transform="translate(0 -15)"><g><animateTransform attributeName="transform" type="scale" values="1 1;1 1.03;1 1" keyTimes="0;0.5;1" calcMode="spline" keySplines="0.4 0 0.6 1;0.4 0 0.6 1" dur="4.0s" begin="-2.6400s" repeatCount="indefinite"/><g transform="translate(0 15)"><g><ellipse cx="0" cy="-15" rx="32" ry="16" fill="#5a4a42"/><ellipse cx="-11.2" cy="-1.4000000000000004" rx="7" ry="4" fill="#e8d9b8"/><ellipse cx="11.2" cy="-1.4000000000000004" rx="7" ry="4" fill="#e8d9b8"/><path d="M28 -10 Q44 -14 42 -30" stroke="#46382f" stroke-width="6" fill="none" stroke-linecap="round"><animateTransform attributeName="transform" type="rotate" values="0 28 -10;10 28 -10;0 28 -10;-6.0 28 -10;0 28 -10" keyTimes="0;0.3;0.55;0.8;1" calcMode="spline" keySplines="0.4 0 0.6 1;0.4 0 0.6 1;0.4 0 0.6 1;0.4 0 0.6 1" dur="7s" begin="-4.6200s" repeatCount="indefinite"/></path><circle cx="-24" cy="-26" r="16" fill="#5a4a42"/><g><animateTransform attributeName="transform" type="rotate" values="0 -37 -37;0 -37 -37;-9 -37 -37;0 -37 -37;0 -37 -37" keyTimes="0;0.55;0.6;0.65;1" dur="9s" begin="-5.9400s" repeatCount="indefinite"/><path d="M-37 -37 L-32.6 -51.3 L-26 -37 Z" fill="#5a4a42"/><path d="M-34.25 -38.1 L-30.18 -45.25 L-28.75 -38.1 Z" fill="#d98a8a"/></g><g><path d="M-20 -38 L-13.4 -52.3 L-9 -38 Z" fill="#5a4a42"/><path d="M-17.25 -39.1 L-12.52 -46.25 L-11.75 -39.1 Z" fill="#d98a8a"/></g><g opacity="1"><animate attributeName="opacity" values="1;1;0;0;1" keyTimes="0;0.92;0.93;0.97;0.98" dur="6.4s" begin="-4.2240s" repeatCount="indefinite"/><circle cx="-31" cy="-27" r="3.7" fill="#3f7a3a" opacity="0"/><circle cx="-17" cy="-27" r="3.7" fill="#3f7a3a" opacity="0"/><circle cx="-31" cy="-27" r="2.2" fill="#2c2620"/><circle cx="-17" cy="-27" r="2.2" fill="#2c2620"/></g><g opacity="0"><animate attributeName="opacity" values="0;0;1;1;0" keyTimes="0;0.92;0.93;0.97;0.98" dur="6.4s" begin="-4.2240s" repeatCount="indefinite"/><path d="M-33.2 -27 Q-31 -23.92 -28.8 -27" stroke="#2c2620" stroke-width="2" fill="none" stroke-linecap="round"/><path d="M-19.2 -27 Q-17 -23.92 -14.8 -27" stroke="#2c2620" stroke-width="2" fill="none" stroke-linecap="round"/></g><circle cx="-24" cy="-21" r="1.8" fill="#d98a8a"/></g></g></g></g></g><g transform="translate(210 444)"><g><rect x="-131.0" y="0" width="262" height="26" fill="#8a5f3c" rx="3"/><rect x="-131.0" y="22" width="262" height="4" fill="#6e4a2e" rx="2"/><text x="0" y="18" text-anchor="middle" font-family="Georgia, serif" font-size="14" font-weight="500" fill="#f5ead2">michael-denyer.github.io</text></g></g><g><animateMotion dur="12.0s" repeatCount="indefinite" path="M 210 652 H 620 H 210"/><text x="0" y="-26" text-anchor="middle" font-family="monospace" font-size="14" font-weight="500" fill="#5a3f28">ec84c05</text><g><animateTransform attributeName="transform" type="rotate" additive="sum" values="0;720;0" keyTimes="0;0.5;1" dur="12.0s" repeatCount="indefinite"/><animateTransform attributeName="transform" type="scale" additive="sum" values="1 1;1 1;0.82 1.14;1 1;1 1;0.82 1.14;1 1" keyTimes="0;0.485;0.5;0.515;0.985;0.997;1" dur="12.0s" repeatCount="indefinite"/><circle cx="0" cy="0" r="13" fill="#ED93B1"/><path d="M -10 3 A 10 10 0 0 1 10 -3" stroke="#d4537e" stroke-width="2" fill="none"/><path d="M -10 -2 A 10 10 0 0 1 10 1" stroke="#d4537e" stroke-width="2" fill="none"/><path d="M -10 -7 A 10 10 0 0 1 10 5" stroke="#d4537e" stroke-width="2" fill="none"/></g></g><g><animateMotion dur="12.0s" begin="-0.6000s" repeatCount="indefinite" path="M 270 660 H 560 H 270"/><g opacity="1"><animate attributeName="opacity" values="1;1;0;0" keyTimes="0;0.5;0.5;1" calcMode="discrete" dur="12.0s" begin="-0.6000s" repeatCount="indefinite"/><g transform="scale(0.950)"><g><g><animateTransform attributeName="transform" type="rotate" values="-6 0 -16;6 0 -16;-6 0 -16" dur="0.4s" repeatCount="indefinite"/><path d="M-22 -16 Q-38 -22 -34 -40" stroke="#5a4a42" stroke-width="7" fill="none" stroke-linecap="round"/><ellipse cx="0" cy="-16" rx="26" ry="15" fill="#5a4a42"/><ellipse cx="-9.1" cy="-3.25" rx="7" ry="4" fill="#e8d9b8"/><ellipse cx="9.1" cy="-3.25" rx="7" ry="4" fill="#e8d9b8"/><ellipse cx="-8" cy="-2" rx="5" ry="8" fill="#46382f"/><ellipse cx="14" cy="-2" rx="5" ry="8" fill="#46382f"/><circle cx="26" cy="-22" r="14" fill="#5a4a42"/><g><path d="M15 -32 L19.0 -45.0 L25 -32 Z" fill="#5a4a42"/><path d="M17.5 -33.0 L21.2 -39.5 L22.5 -33.0 Z" fill="#d98a8a"/></g><g><path d="M29 -33 L35.0 -46.0 L39 -33 Z" fill="#5a4a42"/><path d="M31.5 -34.0 L35.8 -40.5 L36.5 -34.0 Z" fill="#d98a8a"/></g><circle cx="30" cy="-23" r="2.4" fill="#2c2620"/><circle cx="30" cy="-23" r="3.6" fill="#c9a24a" opacity="0"/><circle cx="36" cy="-18" r="1.8" fill="#d98a8a"/></g></g></g></g><g opacity="0"><animate attributeName="opacity" values="0;0;1;1" keyTimes="0;0.5;0.5;1" calcMode="discrete" dur="12.0s" begin="-0.6000s" repeatCount="indefinite"/><g transform="scale(0.950)"><g><g><animateTransform attributeName="transform" type="rotate" values="-6 0 -16;6 0 -16;-6 0 -16" dur="0.4s" repeatCount="indefinite"/><path d="M22 -16 Q38 -22 34 -40" stroke="#5a4a42" stroke-width="7" fill="none" stroke-linecap="round"/><ellipse cx="0" cy="-16" rx="26" ry="15" fill="#5a4a42"/><ellipse cx="-9.1" cy="-3.25" rx="7" ry="4" fill="#e8d9b8"/><ellipse cx="9.1" cy="-3.25" rx="7" ry="4" fill="#e8d9b8"/><ellipse cx="8" cy="-2" rx="5" ry="8" fill="#46382f"/><ellipse cx="-14" cy="-2" rx="5" ry="8" fill="#46382f"/><circle cx="-26" cy="-22" r="14" fill="#5a4a42"/><g><path d="M-25 -32 L-21.0 -45.0 L-15 -32 Z" fill="#5a4a42"/><path d="M-22.5 -33.0 L-18.8 -39.5 L-17.5 -33.0 Z" fill="#d98a8a"/></g><g><path d="M-39 -33 L-33.0 -46.0 L-29 -33 Z" fill="#5a4a42"/><path d="M-36.5 -34.0 L-32.2 -40.5 L-31.5 -34.0 Z" fill="#d98a8a"/></g><circle cx="-30" cy="-23" r="2.4" fill="#2c2620"/><circle cx="-30" cy="-23" r="3.6" fill="#c9a24a" opacity="0"/><circle cx="-36" cy="-18" r="1.8" fill="#d98a8a"/></g></g></g></g></g><g transform="translate(415 678)"><g><rect x="-91.0" y="0" width="182" height="26" fill="#8a5f3c" rx="3"/><rect x="-91.0" y="22" width="182" height="4" fill="#6e4a2e" rx="2"/><text x="0" y="18" text-anchor="middle" font-family="Georgia, serif" font-size="14" font-weight="500" fill="#f5ead2">black-box-unlock</text></g></g><g transform="translate(130 666)"><g><ellipse cx="0" cy="0" rx="42" ry="16" fill="#c75450"/><ellipse cx="0" cy="-6" rx="36" ry="11" fill="#a83c38"/><circle cx="-24" cy="-10" r="3.2" fill="#8a5f3c"/><circle cx="-11" cy="-3" r="3.2" fill="#8a5f3c"/><circle cx="2" cy="-5" r="3.2" fill="#8a5f3c"/><circle cx="15" cy="-7" r="3.2" fill="#8a5f3c"/><circle cx="-22" cy="-9" r="3.2" fill="#8a5f3c"/><circle cx="-9" cy="-2" r="3.2" fill="#8a5f3c"/><circle cx="4" cy="-4" r="3.2" fill="#8a5f3c"/><text x="0" y="6" text-anchor="middle" font-family="Georgia, serif" font-size="13" font-weight="500" fill="#f5ead2">STREAK</text><text x="0" y="30" text-anchor="middle" font-family="Georgia, serif" font-size="14" fill="#5a3f28">15 days of kibble</text></g></g><rect width="1280" height="720" fill="#1b2540" opacity="0"/></svg>